# xmcd
#
# Track frame offsets:
#	150
#	11243
#	43200
#	57815
#	67630
#	85885
#	138615
#	152999
#	172382
#	196072
#	212343
#	232094
#	245682
#	269855
#	291416
#	310806
#	332836
#
# Disc length: 4695 seconds
#
# Revision: 1
# Processed by: cddbd v1.5.2PL0 Copyright (c) Steve Scherf et al.
# Submitted via: audiograbber 1.81.03
#
DISCID=0a125511
DTITLE=DOORS, QUEEN, U2 - ACOUSTIC
DYEAR=1900
DGENRE=Acoustic
TTITLE0=DOORS - BREAK ON THROUGH
TTITLE1=DOORS - LIGHT MY FIRE
TTITLE2=DOORS - LOVE ME TWO TIMES
TTITLE3=DOORS - PEOPLE ARE STRANGE
TTITLE4=DOORS - ROADHOUSE BLUES
TTITLE5=DOORS - THE END
TTITLE6=DOORS - TOUCH ME
TTITLE7=QUEEN - I WANT TO BREAK FREE
TTITLE8=QUEEN - LIVING ON MY OWN 1
TTITLE9=QUEEN - LIVING ON MY OWN
TTITLE10=QUEEN - THE SHOW MUST GO ON
TTITLE11=QUEEN - WE ARE THE CHAMPIONS
TTITLE12=QUEEN - YOU DON'T FOOL ME
TTITLE13=U2 - DANCING BAREFOOT
TTITLE14=U2 - NEW YEARS DAY
TTITLE15=U2 - UNCHAINED MELODY
TTITLE16=U2 - WHEN LOVE COMES TO TOWN
EXTD=
EXTT0=
EXTT1=
EXTT2=
EXTT3=
EXTT4=
EXTT5=
EXTT6=
EXTT7=
EXTT8=
EXTT9=
EXTT10=
EXTT11=
EXTT12=
EXTT13=
EXTT14=
EXTT15=
EXTT16=
PLAYORDER=
